<?xml version="1.0" encoding="utf-8"?>
<!-- Generator: Adobe Illustrator 21.1.0, SVG Export Plug-In . SVG Version: 6.00 Build 0)  -->
<svg version="1.1" id="Capa_1" xmlns="http://www.w3.org/2000/svg" xmlns:xlink="http://www.w3.org/1999/xlink" x="0px" y="0px"
	 viewBox="0 0 1020 593" style="enable-background:new 0 0 1020 593;" xml:space="preserve">
<style type="text/css">
	.st0{fill:none;stroke:#000000;stroke-width:5.6204;stroke-linejoin:round;stroke-miterlimit:10;}
	.st1{fill:none;stroke:#000000;stroke-width:5.6204;stroke-miterlimit:10;}
</style>
<polygon class="st0" points="341.6,590.3 153,296.5 341.6,2.7 684.3,2.7 867,296.5 684.3,590.3 "/>
<g>
	<polygon points="807.3,557.3 975.1,557.3 975.1,378.4 925.7,378.4 925.7,436 872.1,436 872.1,493.6 807.3,493.6 	"/>
	<polygon points="212.4,557.3 44.6,557.3 44.6,378.4 93.9,378.4 93.9,436 147.5,436 147.5,493.6 212.4,493.6 	"/>
</g>
<g>
	<path class="st1" d="M860.4,99.3h57.2c0,0,0,77,0,79.3h-57.2l-98-140.1h208.8v311.6L893,232.3h31.5"/>
	<path class="st1" d="M162,97h-58.6c0,0,0,78.9,0,81.3H162L262.3,34.7H48.4v319.2l80.1-120.7H96.2"/>
</g>
<g>
	<path d="M556.2,525.9l-46.1,46.4l-46.4-46.4H556.2z"/>
</g>
</svg>
