<?xml version="1.0" encoding="utf-8"?>
<!-- Generator: Adobe Illustrator 21.1.0, SVG Export Plug-In . SVG Version: 6.00 Build 0)  -->
<svg version="1.1" id="Capa_1" xmlns="http://www.w3.org/2000/svg" xmlns:xlink="http://www.w3.org/1999/xlink" x="0px" y="0px"
	 viewBox="0 0 94.5 223.3" style="enable-background:new 0 0 94.5 223.3;" xml:space="preserve">
<style type="text/css">
	.st0{fill:none;stroke:#000000;stroke-width:6;stroke-miterlimit:10;}
</style>
<g>
	<g>
		<path class="st0" d="M90.7-37.2c0,18.6-16.4,18.6-16.4,37.2c0,18.6,16.4,18.6,16.4,37.2c0,18.6-16.4,18.6-16.4,37.2
			c0,18.6,16.4,18.6,16.4,37.2c0,18.6-16.4,18.6-16.4,37.2c0,18.6,16.4,18.6,16.4,37.2c0,18.6-16.4,18.6-16.4,37.2
			c0,18.6,16.4,18.6,16.4,37.2s-16.4,18.6-16.4,37.2"/>
	</g>
	<g>
		<polyline class="st0" points="20.3,-37.2 3.9,0 20.3,37.2 3.9,74.4 20.3,111.6 3.9,148.8 20.3,186.1 3.9,223.3 20.3,260.5 
			3.9,297.7 		"/>
	</g>
	<line class="st0" x1="45.2" y1="-42.2" x2="45.2" y2="302.7"/>
</g>
</svg>
