<?xml version="1.0" encoding="utf-8"?>
<!-- Generator: Adobe Illustrator 21.1.0, SVG Export Plug-In . SVG Version: 6.00 Build 0)  -->
<svg version="1.1" id="Capa_1" xmlns="http://www.w3.org/2000/svg" xmlns:xlink="http://www.w3.org/1999/xlink" x="0px" y="0px"
	 viewBox="0 0 284.5 41" style="enable-background:new 0 0 284.5 41;" xml:space="preserve">
<g>
	<g>
		<polygon points="5.6,33.2 5.6,7.7 2.5,2 14.1,2 24.9,25.3 25.1,25.3 34,2 47.1,2 42.5,5.6 42.5,34.2 47.1,38.3 29.5,38.3 
			33.2,34.2 33.2,13.5 33.1,13.5 22.2,41.1 9.1,13.5 9,13.5 9,33.2 15.5,38.3 0.5,38.3 		"/>
		<path d="M53.2,33.2L64.6,2l5.1-2.1L83,35l2.2,3.3H69.2l4.7-3.2L70.7,27L58.9,27l-2.2,6.2l5,5.1h-12L53.2,33.2z M69.7,23.9
			l-4.9-13.4L60,24L69.7,23.9z"/>
		<polygon points="84.5,1.4 87.9,2 113.1,2 116.5,1.4 116.5,15.8 108.3,5 105.2,5 105.2,34.2 111.7,38.3 89.3,38.3 95.8,34.2 
			95.8,5 92.7,5 84.5,15.8 		"/>
		<polygon points="125.3,34.2 125.3,6.1 121.3,2 149.4,2 149.4,13.7 141.7,5.1 134.7,5.1 134.7,18.5 142.2,10.3 142.2,28.7 
			134.7,20.6 134.7,35.3 141.7,35.3 152.4,24.6 149.8,38.3 121.3,38.3 		"/>
		<g>
			<path d="M160.8,34.2v-28L156.7,2h18.8c7.8,0,12.1,3.6,12.1,9.5c0,4.5-4,7.3-11.1,8.3v0.1l3.7,1.2l8.3,13.8l3.7,3.4h-12.1
				l-9.9-17.4v13.2l4.8,4.2h-18.3L160.8,34.2z M171.7,19c4.2,0,6.7-1.8,6.7-6.8c0-5.6-3.1-6.7-6.2-6.7l-2,0.1V19H171.7z"/>
			<polygon points="198.9,34.2 198.9,6.1 194.3,2 213.1,2 208.5,6.1 208.5,34.2 213.1,38.3 194.3,38.3 			"/>
			<path d="M219.2,33.2L230.6,2l5.1-2.1L249,35l2.2,3.3h-16.1l4.7-3.2l-3.2-8.2L224.9,27l-2.2,6.2l5,5.1h-12.1L219.2,33.2z
				 M235.7,23.9l-4.9-13.4L226,24L235.7,23.9z"/>
			<polygon points="258.8,34.2 258.8,6.1 254.7,2 274.2,2 268.2,6.1 268.2,35.3 273.5,35.3 284,26.1 281.7,38.3 254.7,38.3 			"/>
		</g>
	</g>
</g>
</svg>
